HIERARCHY
ROOT Hips
{
	OFFSET	0.000000	0.000000	0.000000
	CHANNELS 6 Xposition Yposition Zposition Zrotation Xrotation Yrotation
	JOINT LeftUpLeg
	{
		OFFSET	12.811937	-7.635976	0.557276
		CHANNELS 3 Zrotation Xrotation Yrotation
		JOINT LeftLeg
		{
			OFFSET	-0.429270	-42.206159	-1.204951
			CHANNELS 3 Zrotation Xrotation Yrotation
			JOINT LeftFoot
			{
				OFFSET	-2.112259	-42.464481	-3.973220
				CHANNELS 3 Zrotation Xrotation Yrotation
				JOINT LeftFootHeel
				{
					OFFSET	0.387196	-5.329707	-3.419729
					CHANNELS 3 Zrotation Xrotation Yrotation
					End Site
					{
						OFFSET	0.327567	-0.000003	16.505428
					}
				}
			}
		}
	}
	JOINT RightUpLeg
	{
		OFFSET	-12.811937	-7.635976	0.557276
		CHANNELS 3 Zrotation Xrotation Yrotation
		JOINT RightLeg
		{
			OFFSET	0.429270	-42.206159	-1.204951
			CHANNELS 3 Zrotation Xrotation Yrotation
			JOINT RightFoot
			{
				OFFSET	2.112259	-42.464481	-3.973220
				CHANNELS 3 Zrotation Xrotation Yrotation
				JOINT RightFootHeel
				{
					OFFSET	-0.387198	-5.329707	-3.419729
					CHANNELS 3 Zrotation Xrotation Yrotation
					End Site
					{
						OFFSET	-0.327566	-0.000003	16.505428
					}
				}
			}
		}
	}
	JOINT Spine
	{
		OFFSET	0.000000	13.731315	-1.007646
		CHANNELS 3 Zrotation Xrotation Yrotation
		JOINT Spine1
		{
			OFFSET	0.000000	12.091746	-0.604589
			CHANNELS 3 Zrotation Xrotation Yrotation
			JOINT LeftShoulder
			{
				OFFSET	5.746115	20.990027	-0.833816
				CHANNELS 3 Zrotation Xrotation Yrotation
				JOINT LeftArm
				{
					OFFSET	10.881538	-1.359258	0.219250
					CHANNELS 3 Zrotation Xrotation Yrotation
					JOINT LeftForeArm
					{
						OFFSET	4.390314	-31.537147	0.202818
						CHANNELS 3 Zrotation Xrotation Yrotation
						JOINT LeftHand
						{
							OFFSET	3.168650	-24.865023	5.373370
							CHANNELS 3 Zrotation Xrotation Yrotation
							End Site
							{
								OFFSET	1.457528	-10.806075	2.170267
							}
						}
					}
				}
			}
			JOINT RightShoulder
			{
				OFFSET	-5.746115	20.990027	-0.833816
				CHANNELS 3 Zrotation Xrotation Yrotation
				JOINT RightArm
				{
					OFFSET	-10.881538	-1.359258	0.219250
					CHANNELS 3 Zrotation Xrotation Yrotation
					JOINT RightForeArm
					{
						OFFSET	-4.390314	-31.537147	0.202818
						CHANNELS 3 Zrotation Xrotation Yrotation
						JOINT RightHand
						{
							OFFSET	-3.168650	-24.865023	5.373370
							CHANNELS 3 Zrotation Xrotation Yrotation
							End Site
							{
								OFFSET	-1.457528	-10.806075	2.170267
							}
						}
					}
				}
			}
			JOINT Neck
			{
				OFFSET	0.000000	27.075639	0.680489
				CHANNELS 3 Zrotation Xrotation Yrotation
				JOINT Head
				{
					OFFSET	0.000000	12.391287	1.239129
					CHANNELS 3 Zrotation Xrotation Yrotation
					End Site
					{
						OFFSET	0.000000	13.818691	-0.105853
					}
				}
			}
		}
	}
}
MOTION
Frames:     17
Frame Time: 0.016667
-0.064532	102.596168	11.222721	2.287174	13.977413	-2.386889	3.763904	-6.899267	6.886388	-3.657883	-1.546771	9.695626	-8.072989	11.858715	-13.422839	0.	0.	0.	-4.498737	-6.655244	-2.569152	-0.553253	-4.580272	2.222864	10.204249	11.801915	3.739778	0.	0.	0.	-3.570625	-14.914135	-2.489678	-0.756583	-11.442215	-7.677986	16.658115	4.222317	3.713247	124.744789	-13.514252	54.662159	12.263181	-14.218283	28.064001	12.636653	-11.636933	-26.822739	-12.527575	-1.282679	7.404569	-129.027954	-10.778371	-64.331352	-18.466236	-32.635658	-47.533630	-0.081149	-8.099496	1.956506	8.973665	4.446416	-25.877014	2.706120	4.484722	18.882547	
-0.029338	102.381462	11.194676	2.162108	13.858755	-2.087191	3.758666	-6.654539	6.651684	-3.666656	-1.663782	9.665982	-7.917802	11.340420	-13.479979	0.	0.	0.	-4.375945	-6.374560	-2.606224	-0.556769	-4.601979	2.309040	9.775665	10.629034	3.562716	0.	0.	0.	-3.477942	-14.949924	-2.559660	-0.686388	-11.426748	-7.733560	16.873283	4.335364	3.651235	125.713730	-14.051304	55.087547	13.094342	-16.254829	28.058855	12.349927	-13.241455	-26.217653	-12.776631	-1.282220	7.162684	-129.775864	-11.226927	-64.567093	-20.712193	-36.270145	-47.761993	-0.076743	-8.203175	1.804498	8.952329	5.161214	-26.474943	2.583377	4.666499	19.282419	
0.067409	101.966042	11.267642	1.822118	13.809372	-1.332115	3.724231	-6.242110	6.090987	-3.652417	-1.914476	9.514879	-7.608387	9.600575	-13.652256	0.	0.	0.	-4.084539	-6.065873	-2.767373	-0.510740	-4.411125	3.250251	9.244925	8.288213	2.399759	0.	0.	0.	-3.300687	-15.290611	-2.756447	-0.475651	-11.433075	-7.934306	17.490675	4.650017	3.346718	128.513733	-15.255335	56.257919	15.536128	-23.160288	28.269201	11.809874	-19.354763	-24.693733	-13.379145	-1.191046	6.473456	-131.748138	-12.017588	-64.864601	-29.282330	-47.208874	-50.457115	0.829904	-8.300951	2.696548	8.819895	7.133854	-27.877890	2.447642	5.373144	20.148537	
0.125060	101.705651	11.268293	1.724006	13.979837	-0.927944	3.697777	-6.346997	5.745747	-3.736752	-1.875094	9.140632	-7.503812	8.300104	-13.462160	0.	0.	0.	-4.023748	-6.156256	-2.725238	-0.487316	-4.234477	3.542370	8.866135	6.748897	1.850436	0.	0.	0.	-3.347438	-15.669625	-2.915681	-0.354717	-11.387669	-8.071222	17.920671	4.830640	3.043309	130.185913	-15.708081	56.873642	17.582153	-28.616604	28.271633	13.381540	-22.977081	-24.334923	-13.618207	-1.023800	6.024626	-133.125793	-12.171660	-65.258965	-36.715179	-54.143002	-54.146446	1.836680	-8.137456	4.536911	8.629742	8.085442	-28.439632	2.565933	5.962725	20.359934	
0.131649	101.477738	11.274353	1.748163	14.164975	-0.566261	3.625289	-6.631067	5.363097	-3.876562	-1.728008	8.535855	-7.424004	7.035954	-12.968699	0.	0.	0.	-4.049444	-6.160659	-2.557710	-0.506529	-4.270729	3.270426	8.407932	5.448536	1.687429	0.	0.	0.	-3.456350	-16.031311	-3.099001	-0.237826	-11.279101	-8.229598	18.309708	4.917181	2.729723	131.522873	-15.991995	57.225021	20.527002	-34.803158	28.188770	16.222265	-25.186171	-24.086533	-13.800458	-0.893031	5.606142	-134.709183	-12.232125	-66.085175	-45.716942	-60.185345	-59.531971	3.565481	-8.083284	7.108285	8.376155	8.766625	-28.939011	2.715717	6.360383	20.653122	
0.106706	101.373152	11.281203	1.786506	14.206679	-0.398373	3.555904	-6.745872	5.090061	-3.935713	-1.668700	8.297757	-7.349452	6.456920	-12.690763	0.	0.	0.	-4.064931	-6.052538	-2.446734	-0.528812	-4.401124	2.994692	8.149198	4.896332	1.696741	0.	0.	0.	-3.518678	-16.148745	-3.195970	-0.163632	-11.270142	-8.308618	18.464632	4.973945	2.566210	132.125549	-16.092928	57.354130	22.293770	-38.167194	28.329409	17.837431	-25.854053	-24.259342	-13.942616	-0.817808	5.413877	-135.551605	-12.232910	-66.737457	-50.902649	-62.935951	-62.933601	4.653707	-7.995982	8.338105	8.212994	9.089484	-29.203533	2.835426	6.510518	20.875469	
-0.002932	101.268837	11.384425	1.887017	14.180405	-0.122809	3.353731	-6.774602	4.403101	-3.982969	-1.704030	8.030281	-7.181529	5.405006	-12.147140	0.	0.	0.	-4.082787	-5.635010	-2.193078	-0.593733	-4.823723	2.440884	7.853590	4.418523	1.721564	0.	0.	0.	-3.627542	-16.339886	-3.383811	-0.028832	-11.242827	-8.489072	18.484459	5.147350	2.481990	133.606033	-16.396896	57.808918	26.439032	-45.284653	29.528845	20.400633	-26.769381	-25.586750	-14.291165	-0.677064	5.027798	-137.249130	-12.180455	-68.255997	-63.491669	-67.852554	-72.393234	6.220939	-7.383508	10.756066	7.887269	9.739097	-29.708185	3.036416	6.659415	21.423565	
-0.044766	100.937461	11.401472	1.968372	14.174861	0.061626	3.164390	-6.720053	3.950751	-3.941974	-1.808516	8.012416	-7.104943	4.910830	-11.942418	0.	0.	0.	-4.032166	-5.250528	-2.033849	-0.724890	-5.213317	2.106874	7.017385	2.848640	1.767648	0.	0.	0.	-3.747739	-16.415390	-3.627513	0.217590	-11.399389	-8.743511	18.757687	5.375385	2.459304	135.987244	-17.167339	59.374802	33.999760	-55.495457	32.876751	22.421925	-27.596931	-28.930437	-14.601119	-0.536753	4.573365	-139.778000	-11.892599	-70.578751	90.345619	-107.728363	86.438316	6.596059	-5.400552	13.385920	7.423790	10.424731	-30.363115	3.217241	6.917541	22.379906	
-0.154189	100.691963	11.429015	1.970147	14.239232	0.035751	2.845500	-6.384414	3.381199	-3.683051	-2.258399	8.273140	-6.939938	3.428600	-11.797171	0.	0.	0.	-3.908066	-5.173860	-2.020315	-0.677964	-5.326838	2.384487	6.121363	1.748911	1.540475	0.	0.	0.	-3.743334	-16.500011	-3.653947	0.301811	-11.447028	-8.830811	19.527739	5.366302	1.905297	136.239853	-17.252110	59.773048	36.349274	-58.418213	34.194969	22.625191	-28.052485	-29.876833	-14.638370	-0.479962	4.540045	-140.633102	-11.702399	-71.430267	80.876839	-106.996941	78.297386	6.672959	-5.179784	13.808645	7.240407	10.582317	-30.489777	3.300499	7.027561	22.645638	
-0.213716	100.347149	11.366827	1.920805	14.608463	-0.240169	2.809722	-6.625916	3.328560	-3.666826	-2.153558	8.295878	-6.659354	1.661566	-11.645413	0.	0.	0.	-3.747871	-5.852671	-2.115877	-0.543521	-4.784468	3.447729	4.922629	-0.042211	0.899312	0.	0.	0.	-3.671220	-16.862717	-3.650294	0.622483	-11.615746	-9.121954	20.144499	5.378176	1.231940	139.360809	-18.621639	62.126534	41.776989	-65.145432	36.919682	22.697803	-26.964190	-32.839272	-14.712466	-0.389131	4.895200	-142.387070	-10.796141	-73.207626	58.664509	-106.597931	57.054222	7.690996	-6.692814	16.460360	6.667253	10.852002	-30.710112	3.660634	7.481870	23.377062	
-0.216152	100.318924	11.476986	1.890385	14.747232	-0.372154	2.857063	-6.757451	3.475939	-3.722395	-2.123594	7.881348	-6.500588	1.178993	-11.235399	0.	0.	0.	-3.704167	-6.000065	-1.984785	-0.516619	-4.706255	3.641012	4.890752	-0.134678	0.715491	0.	0.	0.	-3.618611	-16.983547	-3.625673	0.727931	-11.707917	-9.240140	20.382118	5.338367	1.072201	140.377350	-19.361944	62.948875	42.956367	-66.603966	36.946198	23.170767	-25.716806	-33.692261	-14.782388	-0.330339	5.016281	-142.585785	-10.504517	-73.594246	53.264420	-106.999931	51.670143	8.396041	-7.213098	16.375624	6.472460	10.952308	-30.720921	3.834204	7.604737	23.580572	
-0.226621	100.154748	11.210632	1.843455	14.836140	-0.846326	2.616050	-6.982319	2.507483	-3.499745	-2.220333	7.593640	-5.854722	0.149380	-9.498189	0.	0.	0.	-3.589411	-6.519896	-1.663368	-0.435140	-4.310334	3.918457	4.179318	-0.926503	0.622202	0.	0.	0.	-3.340640	-17.009808	-3.534814	1.019361	-12.148948	-9.571939	21.091721	5.283094	0.894025	143.584717	-21.798279	65.171211	42.554340	-68.154709	34.156456	26.551861	-22.002783	-37.322720	-14.817749	-0.074074	5.199603	-142.771851	-10.042500	-74.539146	45.355118	-107.630699	43.348812	10.560923	-7.859797	14.755994	5.897496	11.335883	-30.253551	4.578790	7.743397	23.725986	
-0.181931	100.133354	11.229984	1.744131	14.659396	-1.159115	2.466267	-6.752457	1.342818	-3.149426	-2.489328	8.390727	-5.589842	-0.117620	-8.776568	0.	0.	0.	-3.499085	-6.288561	-1.166944	-0.424551	-4.487652	3.557965	4.271563	-0.772683	0.832601	0.	0.	0.	-2.938870	-16.763386	-3.414637	1.257432	-12.515109	-9.824177	21.427757	5.250965	0.830839	145.403320	-23.166822	66.469673	39.235893	-67.313736	30.436157	28.398165	-20.530586	-40.267578	-14.673787	0.048398	5.299009	-142.616165	-9.887695	-74.859650	46.220898	-107.125038	43.195305	11.826427	-7.537131	14.147398	5.515402	11.426478	-29.751043	4.900623	7.461135	23.841988	
-0.082650	100.125195	11.308186	1.519696	14.678596	-1.445992	2.431649	-6.529649	0.587110	-2.794086	-2.766138	9.577973	-5.486372	-0.210062	-8.893602	0.	0.	0.	-3.363698	-6.203087	-0.984428	-0.337216	-4.729212	3.414140	4.612772	-0.389058	1.139174	0.	0.	0.	-2.323822	-16.603861	-3.191033	1.566369	-12.981989	-10.192287	21.592115	5.206704	0.746731	146.416214	-24.090025	67.242233	35.769169	-65.491089	27.179396	29.656027	-19.796057	-42.272938	-14.462924	0.126866	5.387826	-142.270569	-9.728999	-74.890450	51.511391	-106.038849	46.541977	12.451262	-7.218448	14.554913	4.995489	11.378613	-29.063028	5.099052	7.096438	24.069942	
-0.024216	100.125021	11.350182	1.395302	14.792079	-1.586000	2.482433	-6.617315	0.349048	-2.666884	-2.733345	10.167010	-5.496789	-0.224284	-9.078925	0.	0.	0.	-3.303457	-6.298128	-1.013320	-0.260381	-4.798017	3.456795	4.813874	-0.181065	1.291111	0.	0.	0.	-1.978017	-16.571693	-3.078127	1.739790	-13.242508	-10.378690	21.637081	5.191305	0.683421	146.587738	-24.324038	67.419067	34.187683	-64.338173	25.875143	29.917181	-19.417150	-42.814072	-14.342172	0.152599	5.433466	-141.994247	-9.641886	-74.769539	55.853451	-105.303299	49.534805	12.345731	-7.052368	15.046002	4.730083	11.274554	-28.703466	5.132283	6.934465	24.209272	
0.059341	100.182052	11.392609	1.289342	14.923670	-1.723083	2.540788	-6.789784	0.197816	-2.571658	-2.528475	10.643375	-5.539010	-0.297728	-9.253797	0.	0.	0.	-3.334326	-6.463647	-1.343367	-0.082521	-4.796133	3.811397	5.177211	0.239229	1.422420	0.	0.	0.	-1.461632	-16.339333	-3.127982	2.105594	-13.718229	-10.619741	20.968260	5.447695	1.365696	147.139206	-24.490578	67.958176	32.694035	-63.029724	24.666803	30.074970	-18.974680	-43.082333	-14.499734	0.080399	5.832274	-142.501190	-9.769842	-75.055870	63.956226	-103.746071	56.185280	11.840096	-6.887419	15.602468	4.124033	11.107759	-27.918692	5.138630	6.773493	24.324776	
0.134045	100.192894	11.460927	1.207614	15.180408	-2.152860	2.494065	-7.372229	0.078456	-2.334013	-2.069390	10.972692	-5.681115	-0.011915	-9.036792	0.	0.	0.	-3.251499	-6.790352	-1.137386	-0.071041	-4.810902	3.926400	5.389180	0.537379	1.517583	0.	0.	0.	-0.876671	-16.317488	-2.985653	2.394011	-14.004177	-10.781206	21.580267	5.038341	0.530938	146.325516	-24.139534	67.231606	28.388163	-57.630993	21.517784	31.177505	-17.870646	-43.038593	-13.728051	0.385176	5.618943	-141.348022	-9.241631	-74.182625	92.640068	-103.760193	83.341606	8.457606	-7.764395	20.115419	3.997865	10.252207	-26.904530	4.984026	6.567210	24.437004	
